<svg xmlns="http://www.w3.org/2000/svg" width="148.362" height="204.487" viewBox="0 0 148.362 204.487">
  <g id="flecha_contacto" data-name="flecha contacto" transform="translate(1.514 0.968)">
    <path id="Trazado_6496" data-name="Trazado 6496" d="M144.664,57.854a53.732,53.732,0,0,1-6.416,18.607c-16.49,29.506-52.423,34.28-91.066,12.1A105.514,105.514,0,0,1,19.146,65.807C10.377,55.608,2.767,41.925.624,29.738-1.973,14.967,3.849,5.3,12.21,1.809,22.8-2.61,37.548,1.223,52.125,11.614s28.839,27.112,39.61,45.836a129.4,129.4,0,0,1,11.071,24.185c7.018,21.682,5.143,44.316-4.368,53.027-6.317,5.787-15,9.018-24.666,8.992H52.334" transform="translate(0 39.532)" fill="none" stroke="#1f1f23" stroke-width="3"/>
    <g id="Grupo_6520" data-name="Grupo 6520" transform="translate(51.271 161.987)">
      <path id="Trazado_6497" data-name="Trazado 6497" d="M26.721,0S16.032,20.13,0,21.2c0,0,12.291.713,26.721,19.417" transform="translate(0 0)" fill="none" stroke="#1f1f23" stroke-width="3"/>
    </g>
    <path id="Trazado_6498" data-name="Trazado 6498" d="M0,0C25.553,30.272,42.737,68.394,38.436,97.386" transform="translate(106.229 0)" fill="none" stroke="#1f1f23" stroke-width="3"/>
  </g>
</svg>
