<svg xmlns="http://www.w3.org/2000/svg" width="169.856" height="76" viewBox="0 0 169.856 76">
  <g id="Grupo_6511" data-name="Grupo 6511" transform="translate(-2628.394 448.434)">
    <path id="Trazado_6485" data-name="Trazado 6485" d="M3132.109-399.6a7.722,7.722,0,0,1,7.724,7.734,7.722,7.722,0,0,1-7.724,7.734,7.687,7.687,0,0,1-7.552-7.734A7.687,7.687,0,0,1,3132.109-399.6Zm-6.437,64.131v-43.188h13.045v43.188Z" transform="translate(-388.651 -38.254)" fill="#fff"/>
    <path id="Trazado_6486" data-name="Trazado 6486" d="M3240.353-265.522h-13.045v-42.655h12.615v4.892c2.318-4.033,7.552-6.007,11.93-6.007,10.727,0,15.534,7.639,15.534,16.993v26.777h-13.045v-24.545c0-4.205-2.231-7.381-6.952-7.381-4.292,0-7.038,3.175-7.038,7.466Z" transform="translate(-469.137 -108.199)" fill="#fff"/>
    <path id="Trazado_6487" data-name="Trazado 6487" d="M2940.216-278.415c-2.06,7.381-8.84,13.56-19.654,13.56-11.758,0-22.229-8.41-22.229-22.743,0-13.731,10.213-22.486,21.285-22.486,13.217,0,21.37,8.153,21.37,21.885a27.11,27.11,0,0,1-.258,4.034h-29.695c.258,4.806,4.634,8.24,9.7,8.24,4.72,0,7.381-2.232,8.582-5.579Zm-11.844-14.161c-.171-3.262-2.4-7.209-8.582-7.209a8.125,8.125,0,0,0-8.5,7.209Z" transform="translate(-211.448 -107.579)" fill="#fff"/>
    <path id="Trazado_6488" data-name="Trazado 6488" d="M2644.913-426.884a9.968,9.968,0,0,1,5.643-1.746,10.024,10.024,0,0,1,5.246,1.488c.1-3.815,3.84-7.393,9.62-7.393,8.538,0,11.219,5.559,11.715,8.835l14.1-3.971c-1.489-8.24-8.14-18.762-25.712-18.762-13.5,0-25.216,9.332-25.216,22.634a20.8,20.8,0,0,0,.544,4.784A9.969,9.969,0,0,1,2644.913-426.884Z" transform="translate(-9.331)" fill="#fff"/>
    <path id="Trazado_6489" data-name="Trazado 6489" d="M2662.842-339.225l-9.431-1.787a9.155,9.155,0,0,1-5.619-2.808l-.011.008c-.007-.009-.011-.019-.017-.028a7.908,7.908,0,0,0-10.99-2.072,7.908,7.908,0,0,0-2.072,10.99c.01.015.023.029.033.044l-.02.014c3.274,4.446,8.575,7.63,15.421,8.942l9.629,1.787c4.666.893,7.545,3.475,7.545,7.048,0,4.368-3.773,7.346-9.928,7.346-9.63,0-14-5.658-14.593-12.111l-14.395,3.475c.993,9.927,9.331,22.535,28.789,22.535,16.778,0,26.01-11.218,26.01-22.237C2683.194-328.106,2676.244-336.743,2662.842-339.225Z" transform="translate(0 -78.436)" fill="#fff"/>
  </g>
</svg>
