<svg id="Icon_Ig" data-name="Icon Ig" xmlns="http://www.w3.org/2000/svg" width="22" height="22" viewBox="0 0 22 22">
  <g id="Grupo_6479" data-name="Grupo 6479">
    <path id="Trazado_6479" data-name="Trazado 6479" d="M11,22h0A11,11,0,1,1,22,11,11,11,0,0,1,11,22" fill="#fff"/>
    <path id="Trazado_6480" data-name="Trazado 6480" d="M11,6.056c1.61,0,1.8.006,2.437.035a3.327,3.327,0,0,1,1.12.208A2,2,0,0,1,15.7,7.443a3.339,3.339,0,0,1,.207,1.12c.029.636.036.827.036,2.437s-.007,1.8-.036,2.438a3.326,3.326,0,0,1-.207,1.119A1.993,1.993,0,0,1,14.557,15.7a3.327,3.327,0,0,1-1.12.208c-.636.029-.826.035-2.437.035s-1.8-.006-2.437-.035a3.327,3.327,0,0,1-1.12-.208A1.993,1.993,0,0,1,6.3,14.557a3.326,3.326,0,0,1-.207-1.119c-.029-.636-.035-.827-.035-2.438s.006-1.8.035-2.437A3.339,3.339,0,0,1,6.3,7.443,2,2,0,0,1,7.443,6.3a3.327,3.327,0,0,1,1.12-.208C9.2,6.062,9.39,6.056,11,6.056m0-1.087c-1.638,0-1.843.007-2.487.036a4.447,4.447,0,0,0-1.464.281A3.081,3.081,0,0,0,5.285,7.05a4.419,4.419,0,0,0-.28,1.464c-.029.643-.036.848-.036,2.486s.007,1.844.036,2.487a4.424,4.424,0,0,0,.28,1.464,3.089,3.089,0,0,0,1.764,1.764A4.424,4.424,0,0,0,8.513,17c.644.03.849.037,2.487.037s1.843-.007,2.487-.037a4.424,4.424,0,0,0,1.464-.28,3.089,3.089,0,0,0,1.764-1.764A4.424,4.424,0,0,0,17,13.487c.029-.643.036-.849.036-2.487S17.024,9.157,17,8.514a4.419,4.419,0,0,0-.28-1.464,3.081,3.081,0,0,0-1.764-1.764,4.447,4.447,0,0,0-1.464-.281c-.644-.029-.849-.036-2.487-.036" fill="#35373b"/>
    <path id="Trazado_6481" data-name="Trazado 6481" d="M11,7.9A3.1,3.1,0,1,0,14.1,11,3.1,3.1,0,0,0,11,7.9m0,5.108A2.011,2.011,0,1,1,13.01,11,2.01,2.01,0,0,1,11,13.01" fill="#35373b"/>
    <path id="Trazado_6482" data-name="Trazado 6482" d="M14.943,7.78a.724.724,0,1,1-.724-.724.724.724,0,0,1,.724.724" fill="#35373b"/>
  </g>
</svg>
