<svg xmlns="http://www.w3.org/2000/svg" width="442.53" height="423.907" viewBox="0 0 442.53 423.907">
  <g id="Ilustracion_linea" data-name="Ilustracion linea" transform="translate(2.491 0.32)">
    <g id="Grupo_1638" data-name="Grupo 1638" transform="translate(350.001)">
      <path id="Trazado_3696" data-name="Trazado 3696" d="M2198.248-1203s56.7-17.371,88.171,10.161c0,0-21.3-23.927-13.439-84.892" transform="translate(-2198.248 1277.727)" fill="none" stroke="#fff" stroke-miterlimit="10" stroke-width="5"/>
    </g>
    <path id="Trazado_3697" data-name="Trazado 3697" d="M2058.417-1184.745c38.951,23.7,70.016,69.318,87.022,132.142a312.947,312.947,0,0,1,7.186,33.434" transform="translate(-1801.11 1246.383)" fill="none" stroke="#fff" stroke-miterlimit="10" stroke-width="5"/>
    <path id="Trazado_3698" data-name="Trazado 3698" d="M2122.132-934.97a259.983,259.983,0,0,1,2.53,60.016c-2.63,34.9-13.8,74.079-32.285,100.445-22.4,31.957-50.9,39.035-72.706,30.071-23.97-9.855-42.262-36.924-51.71-73.943" transform="translate(-1770.617 1161.854)" fill="none" stroke="#fff" stroke-miterlimit="10" stroke-width="5"/>
    <path id="Trazado_3699" data-name="Trazado 3699" d="M2058.417-1208.661c24.688-29.459,53.969-48.022,77.534-46.989,22.269.976,44.189,11,61.927,28.841l39.446,39.446" transform="translate(-1801.11 1270.299)" fill="none" stroke="#fff" stroke-miterlimit="10" stroke-width="5"/>
    <path id="Trazado_3700" data-name="Trazado 3700" d="M1982.728-1194.167c-30.433-18.517-65.68-23.653-102.8-13.149a139.812,139.812,0,0,0-46.041,22.43" transform="translate(-1725.421 1255.805)" fill="none" stroke="#fff" stroke-miterlimit="10" stroke-width="5"/>
    <path id="Trazado_3701" data-name="Trazado 3701" d="M2024.163-1184.745A228.344,228.344,0,0,0,1996.1-1142.2c-10.14,19.845-18.025,42.232-24.13,64.868-14.636,54.269-19.156,111.275-11.456,157.215q1.523,9.093,3.69,17.54" transform="translate(-1766.856 1246.383)" fill="none" stroke="#fff" stroke-miterlimit="10" stroke-width="5"/>
    <path id="Trazado_3702" data-name="Trazado 3702" d="M1778.73-1170.745c-61.258,45.432-99.782,147.189-108.465,249.9" transform="translate(-1670.265 1241.527)" fill="none" stroke="#fff" stroke-miterlimit="10" stroke-width="5"/>
  </g>
</svg>
